<?xml version="1.0" standalone="no"?>
<!DOCTYPE svg PUBLIC "-//W3C//DTD SVG 20010904//EN"
 "http://www.w3.org/TR/2001/REC-SVG-20010904/DTD/svg10.dtd">
<svg version="1.0" xmlns="http://www.w3.org/2000/svg"
 width="767.000000pt" height="516.000000pt" viewBox="0 0 767.000000 516.000000"
 preserveAspectRatio="xMidYMid meet">
<metadata>
Created by potrace 1.15, written by Peter Selinger 2001-2017
</metadata>
<g transform="translate(0.000000,516.000000) scale(0.100000,-0.100000)"
fill="#000000" stroke="none">
<path d="M2031 5144 c-118 -32 -247 -124 -309 -222 -32 -50 -56 -107 -143
-344 l-53 -148 -536 0 c-594 0 -600 -1 -716 -65 -127 -71 -233 -217 -264 -365
-8 -41 -10 -514 -8 -1805 l3 -1750 23 -64 c56 -160 174 -276 336 -333 l81 -28
393 0 392 0 0 184 0 185 -367 3 c-398 3 -397 3 -450 60 -50 54 -48 -29 -51
1738 -2 1206 1 1670 9 1710 15 70 75 134 141 150 26 6 287 10 659 10 l616 0
68 183 c38 100 90 242 116 316 50 138 74 176 134 209 27 15 101 17 802 17
l773 0 23 -25 c13 -14 38 -63 55 -110 17 -47 73 -199 124 -337 l93 -253 615 0
c338 -1 633 -4 656 -9 25 -5 56 -21 79 -42 73 -67 69 -41 75 -574 l5 -480 175
0 175 0 3 495 c3 552 2 566 -60 688 -67 131 -170 219 -311 267 l-76 25 -538 0
-539 0 -23 63 c-13 34 -49 135 -82 225 -32 89 -70 185 -85 211 -40 74 -119
147 -203 189 l-75 37 -840 2 c-711 2 -849 0 -895 -13z"/>
<path d="M2655 3585 c-290 -54 -507 -165 -722 -369 -40 -38 -73 -72 -73 -77 0
-5 -23 -37 -50 -71 -229 -284 -330 -709 -259 -1099 77 -432 346 -792 734 -982
86 -43 217 -91 278 -102 20 -4 37 -11 37 -15 0 -13 162 -30 287 -30 120 0 273
16 283 30 3 4 47 19 99 34 286 81 558 279 716 521 175 267 245 496 245 799 0
222 -32 375 -125 591 -27 63 -109 194 -163 261 -28 34 -55 71 -61 83 -16 29
-171 163 -251 216 -153 102 -354 181 -532 210 -112 18 -345 18 -443 0z m423
-381 c232 -48 437 -182 590 -386 128 -170 193 -369 193 -594 0 -238 -63 -420
-217 -621 -185 -244 -453 -374 -769 -375 -198 0 -388 58 -544 165 -62 42 -181
146 -181 157 0 6 -23 38 -50 72 -62 77 -142 236 -172 343 -31 110 -33 381 -4
495 27 105 66 197 121 285 54 86 195 243 264 293 108 78 242 137 381 166 91
20 293 20 388 0z"/>
<path d="M2715 2945 c-306 -66 -535 -344 -552 -667 -6 -102 -5 -108 20 -151
67 -115 250 -116 313 -3 13 22 26 72 32 117 13 100 50 178 117 245 58 59 125
88 225 98 126 13 190 77 190 189 0 32 -6 70 -14 85 -19 36 -65 78 -99 91 -38
15 -158 12 -232 -4z"/>
<path d="M5013 2348 c-24 -41 -43 -84 -93 -207 -31 -77 -89 -129 -137 -123
-17 3 -26 -3 -32 -20 -10 -27 -4 -48 14 -48 7 0 35 15 63 34 l50 35 -22 -62
c-12 -34 -31 -82 -42 -107 -12 -25 -29 -63 -38 -85 -14 -34 -27 -45 -89 -75
-78 -38 -90 -57 -58 -89 52 -52 117 -32 172 54 36 56 54 65 130 65 46 0 121
-33 156 -68 19 -19 27 -21 38 -12 19 16 19 50 1 75 -19 26 -97 44 -193 45 -46
0 -83 1 -83 3 0 1 16 42 35 91 19 49 44 123 56 165 13 47 33 90 54 116 54 67
83 120 90 164 11 78 -36 110 -72 49z"/>
<path d="M5519 2347 c-90 -61 -227 -272 -266 -411 -28 -100 -30 -114 -29 -194
1 -70 4 -84 25 -106 31 -33 61 -33 94 0 30 30 83 121 93 158 3 14 10 26 14 26
7 0 22 30 25 50 0 3 6 14 13 25 11 17 12 12 6 -34 -14 -115 -4 -163 38 -177
17 -5 32 4 75 49 43 44 53 62 53 89 l0 33 -56 -57 c-31 -32 -58 -58 -60 -58
-12 0 23 211 39 237 3 4 12 43 21 87 13 59 14 82 5 92 -16 19 -38 18 -46 -3
-3 -10 -21 -51 -39 -91 -19 -40 -34 -74 -34 -76 0 -1 -30 -56 -66 -122 -74
-134 -109 -184 -129 -184 -36 0 -12 170 40 285 13 28 34 76 48 107 14 32 40
78 58 104 37 54 118 134 137 134 17 0 15 -32 -3 -56 -21 -27 -20 -66 2 -62 21
4 31 36 32 104 2 77 -27 93 -90 51z"/>
<path d="M4535 2323 c-60 -41 -121 -111 -155 -177 -40 -78 -39 -126 1 -126 14
0 2 -17 -44 -62 -68 -67 -97 -114 -116 -190 -32 -134 61 -223 158 -151 46 35
148 139 203 208 68 86 83 114 70 127 -7 7 -26 -11 -58 -52 -64 -81 -181 -197
-218 -215 -38 -20 -72 -19 -80 1 -8 20 2 77 22 124 32 79 150 210 208 232 35
12 69 61 60 85 -9 21 -49 10 -114 -33 -51 -33 -53 -34 -47 -12 10 31 52 108
73 133 29 34 105 95 118 95 24 0 27 -41 5 -71 -21 -29 -19 -59 5 -59 15 0 34
59 34 107 0 65 -57 82 -125 36z"/>
<path d="M7346 2318 c-94 -52 -96 -54 -138 -94 -71 -70 -111 -179 -79 -218 7
-8 37 -24 69 -36 31 -12 71 -29 89 -36 17 -8 35 -14 40 -14 22 0 66 -48 66
-73 0 -38 -51 -112 -93 -135 -60 -33 -150 -89 -183 -115 -22 -17 -29 -28 -24
-42 6 -15 15 -17 54 -11 53 7 110 38 191 104 31 25 90 68 130 95 43 28 77 58
83 74 12 33 5 39 -23 21 -13 -8 -36 -23 -52 -33 l-29 -19 12 21 c18 35 13 97
-10 127 -11 14 -25 24 -30 21 -5 -4 -9 -2 -9 3 0 11 -134 52 -168 52 -26 0
-82 26 -82 38 0 13 59 102 67 102 5 0 25 16 46 35 20 18 37 32 37 29 0 -2 18
5 39 16 61 31 120 41 168 28 51 -13 79 -48 63 -79 -9 -15 -8 -24 1 -35 35 -42
53 60 24 133 -21 52 -47 66 -130 70 -64 3 -75 0 -129 -29z"/>
<path d="M5880 2286 c-112 -28 -162 -54 -174 -89 -7 -19 -6 -31 2 -39 10 -10
17 -7 35 14 12 14 32 31 45 38 25 12 125 40 130 36 2 -3 -6 -29 -73 -218 -25
-70 -45 -135 -45 -143 0 -24 30 -76 40 -70 4 3 11 20 15 38 6 30 44 155 51
168 5 9 177 -17 202 -30 12 -6 29 -23 38 -36 15 -23 15 -27 -6 -60 -31 -50
-95 -101 -175 -140 -73 -36 -82 -38 -127 -36 -40 1 -35 14 20 53 79 57 149 91
176 86 26 -5 36 7 36 43 0 26 -23 34 -52 18 -69 -36 -191 -126 -237 -174 -50
-53 -52 -57 -38 -78 13 -19 23 -22 80 -21 55 0 78 7 150 43 90 44 178 114 202
162 41 78 -6 176 -101 211 -32 11 -46 28 -24 28 6 0 30 18 55 41 57 52 68 98
34 135 -45 48 -126 54 -259 20z m217 -49 c16 -16 15 -19 -12 -48 -17 -17 -57
-47 -90 -66 -33 -19 -64 -40 -68 -47 -6 -7 -7 -4 -3 7 25 78 37 132 33 147 -6
22 9 27 76 25 29 0 54 -7 64 -18z"/>
<path d="M6560 2276 c-116 -25 -225 -105 -269 -199 -29 -59 -22 -93 21 -111
26 -11 40 -11 82 0 28 8 52 14 53 14 2 0 -4 -15 -12 -32 -32 -73 -85 -216 -85
-231 0 -8 -8 -14 -17 -13 -23 1 -29 -37 -9 -54 21 -17 84 -15 141 4 25 9 50
16 56 16 15 0 80 32 103 50 105 84 157 158 174 247 28 141 -30 271 -135 307
-25 9 -47 16 -47 15 -1 0 -26 -6 -56 -13z m105 -59 c57 -32 75 -74 75 -172 0
-57 -6 -92 -20 -123 -38 -84 -170 -183 -264 -199 l-37 -6 39 109 c65 180 64
178 113 194 24 7 53 15 64 17 28 5 69 37 73 58 7 32 -14 37 -44 12 -24 -19
-102 -57 -119 -57 -2 0 -2 21 2 48 4 37 1 52 -14 71 -25 30 -43 20 -41 -22 0
-18 -5 -51 -11 -75 -10 -35 -19 -46 -46 -58 -51 -21 -102 -18 -110 6 -14 43
67 140 155 185 78 41 129 44 185 12z"/>
<path d="M2412 497 c-54 -20 -103 -67 -129 -124 -22 -47 -25 -66 -22 -137 4
-71 8 -89 34 -132 44 -70 99 -99 190 -99 86 1 142 27 185 86 54 75 64 214 20
298 -50 99 -172 146 -278 108z m146 -107 c62 -61 63 -205 2 -270 -22 -24 -36
-30 -68 -30 -95 0 -148 116 -110 242 26 86 118 117 176 58z"/>
<path d="M3282 497 c-54 -20 -103 -67 -129 -124 -22 -47 -25 -66 -22 -137 4
-71 8 -89 34 -132 44 -70 99 -99 190 -99 86 1 142 27 185 86 54 75 64 214 20
298 -50 99 -172 146 -278 108z m146 -107 c62 -61 63 -205 2 -270 -22 -24 -36
-30 -68 -30 -95 0 -148 116 -110 242 26 86 118 117 176 58z"/>
<path d="M3837 500 c-53 -14 -87 -33 -124 -72 -46 -48 -63 -96 -63 -181 0
-180 123 -270 326 -239 42 7 80 15 85 18 5 3 9 63 9 135 l0 129 -90 0 -90 0 0
-39 c0 -39 1 -40 38 -43 l37 -3 0 -55 0 -55 -50 -3 c-61 -4 -111 25 -137 78
-39 78 -8 195 62 232 38 20 114 24 156 8 33 -13 40 -6 49 41 5 30 3 38 -12 43
-30 12 -156 16 -196 6z"/>
<path d="M1398 493 l-28 -4 0 -240 0 -239 55 0 55 0 0 84 0 83 58 6 c86 7 139
38 164 94 35 79 11 154 -63 198 -25 15 -54 20 -124 21 -49 1 -102 0 -117 -3z
m194 -103 c42 -52 5 -118 -68 -123 l-39 -2 -3 64 c-2 35 0 71 3 79 8 22 85 9
107 -18z"/>
<path d="M1780 255 l0 -245 55 0 55 0 0 105 0 105 90 0 90 0 0 -105 0 -105 55
0 55 0 0 245 0 245 -55 0 -55 0 0 -95 0 -95 -90 0 -90 0 0 95 0 95 -55 0 -55
0 0 -245z"/>
<path d="M2740 455 l0 -45 65 0 65 0 0 -200 0 -200 55 0 55 0 0 200 0 200 65
0 65 0 0 45 0 45 -185 0 -185 0 0 -45z"/>
<path d="M4193 493 l-33 -4 0 -240 0 -239 55 0 55 0 0 95 0 95 33 0 c46 0 64
-23 89 -114 l20 -76 58 0 58 0 -14 48 c-8 26 -19 64 -25 84 -5 20 -21 51 -35
67 l-25 30 25 16 c29 19 56 72 56 112 0 39 -33 89 -72 109 -33 17 -176 27
-245 17z m194 -99 c37 -51 -6 -114 -78 -114 l-39 0 0 71 0 72 52 -5 c34 -4 56
-12 65 -24z"/>
<path d="M4695 488 c-3 -7 -34 -110 -69 -228 -36 -119 -68 -224 -72 -233 -6
-16 0 -18 52 -15 l59 3 16 60 16 60 70 3 71 3 17 -66 18 -65 59 0 c56 0 58 1
53 23 -4 12 -37 121 -74 242 l-68 220 -72 3 c-51 2 -73 -1 -76 -10z"/>
<path d="M5060 255 l0 -245 55 0 55 0 0 105 0 105 90 0 90 0 0 -105 0 -105 55
0 55 0 0 245 0 245 -55 0 -55 0 0 -95 0 -95 -90 0 -90 0 0 95 0 95 -55 0 -55
0 0 -245z"/>
<path d="M5584 356 l76 -145 0 -100 0 -101 55 0 55 0 0 102 0 102 67 120 c36
67 73 131 81 144 l14 22 -63 0 -64 0 -40 -100 c-22 -55 -42 -100 -46 -100 -3
0 -23 44 -45 98 l-39 97 -64 3 -63 3 76 -145z"/>
</g>
</svg>
